<svg xmlns="http://www.w3.org/2000/svg"  viewBox="0 0 30 30" width="480px" height="480px"><path d="M14.217 19.707l-1.112 2.547c-.427.979-1.782.979-2.21 0l-1.112-2.547c-.99-2.267-2.771-4.071-4.993-5.057L1.73 13.292c-.973-.432-.973-1.848 0-2.28l2.965-1.316C6.974 8.684 8.787 6.813 9.76 4.47l1.126-2.714c.418-1.007 1.81-1.007 2.228 0L14.24 4.47c.973 2.344 2.786 4.215 5.065 5.226l2.965 1.316c.973.432.973 1.848 0 2.28l-3.061 1.359C16.988 15.637 15.206 17.441 14.217 19.707zM24.481 27.796l-.339.777c-.248.569-1.036.569-1.284 0l-.339-.777c-.604-1.385-1.693-2.488-3.051-3.092l-1.044-.464c-.565-.251-.565-1.072 0-1.323l.986-.438c1.393-.619 2.501-1.763 3.095-3.195l.348-.84c.243-.585 1.052-.585 1.294 0l.348.84c.594 1.432 1.702 2.576 3.095 3.195l.986.438c.565.251.565 1.072 0 1.323l-1.044.464C26.174 25.308 25.085 26.411 24.481 27.796z"/></svg>